<?xml version="1.0" encoding="utf-8"?>
<!-- Generator: Adobe Illustrator 27.0.0, SVG Export Plug-In . SVG Version: 6.00 Build 0)  -->
<svg version="1.1" id="Layer_1" xmlns="http://www.w3.org/2000/svg" xmlns:xlink="http://www.w3.org/1999/xlink" x="0px" y="0px"
	 viewBox="0 0 595.7 595.3" style="enable-background:new 0 0 595.7 595.3;" xml:space="preserve">
<style type="text/css">
	.st0{fill:#1E1E1E;}
	.st1{fill:#FFFFFF;}
</style>
<g>
	<path class="st0" d="M88.4,9.7h418.9c43.4,0,78.5,35.2,78.5,78.5v418.9c0,43.4-35.2,78.5-78.5,78.5H88.4
		c-43.4,0-78.5-35.2-78.5-78.5V88.2C9.9,44.8,45,9.7,88.4,9.7z"/>
	<g>
		<g>
			<path class="st1" d="M336.7,212c0.8-0.5,1.5-1,2.3-1.5c-17.9-10.2-35.8-20.6-53.8-31c-17.9-10.4-36-20.8-54.4-31
				c-17.9,10.6-36,21.1-54.1,31.5c-18.1,10.3-36.2,20.8-54.1,31.5v125c18.3,10.6,36.4,21.1,54.2,31.5s36.1,20.8,54.8,31.5
				c9.1-5.4,18.2-10.8,27.3-16.1c7.7-4.5,15.4-9,23.2-13.5c0.1,0,0.2-0.1,0.2-0.1c1-0.6,2-1.1,2.9-1.7
				c17.8-10.3,35.7-20.8,53.6-31.5l-31.9-18.6c-12.4,7.5-25,14.9-37.7,22.2c-12.7,7.3-25.6,14.7-38.6,22.2
				c-9.5-5.3-18.9-10.9-28.4-16.8c-9.5-5.9-18.9-11.5-28.4-16.8c-3.1-1.8-6.4-3.5-9.7-5.3c-3.4-1.8-6.6-3.5-9.8-5.3V230
				c13-7.5,25.8-15,38.6-22.4c12.7-7.5,25.6-14.8,38.6-21.9c12.4,7.1,25,14.3,37.7,21.7s25.3,14.6,37.7,21.7
				c2.1-1.2,4.2-2.3,6.3-3.5L336.7,212z"/>
		</g>
		<g>
			<path class="st1" d="M313.4,225.6c-1,0.6-2.1,1.2-3.2,1.8c-17.8,10.3-35.7,20.8-53.6,31.5l31.9,18.6c12.4-7.5,25-14.9,37.7-22.2
				c12.7-7.3,25.6-14.7,38.6-22.2c9.4,5.3,18.9,10.9,28.4,16.8c9.5,5.9,18.9,11.5,28.4,16.8c3.2,1.8,6.4,3.5,9.8,5.3
				c3.3,1.8,6.6,3.5,9.8,5.3v87.7c-13,7.5-25.9,15-38.6,22.4c-12.7,7.5-25.5,14.8-38.6,21.9c-12.4-7.1-25-14.3-37.7-21.7
				c-12.7-7.4-25.3-14.6-37.7-21.7c-2,1.1-4.1,2.3-6.1,3.4c-0.1,0-0.2,0.1-0.2,0.1c-3.4,1.9-6.8,3.7-9.9,5.5
				c-4.4,2.4-8.7,5.1-13.2,8c-0.8,0.5-1.6,1.1-2.4,1.6c17.9,10.2,35.8,20.6,53.8,31c17.9,10.4,36,20.8,54.4,31
				c17.9-10.6,36-21.1,54.1-31.5c18.1-10.3,36.2-20.8,54.1-31.5v-125c-18.3-10.6-36.4-21.1-54.2-31.5
				c-17.8-10.3-36.1-20.8-54.8-31.5c-9.1,5.4-18.1,10.7-27.2,16L313.4,225.6z"/>
		</g>
	</g>
</g>
</svg>
